<svg id="visual" viewBox="0 0 900 600" width="900" height="600" xmlns="http://www.w3.org/2000/svg" xmlns:xlink="http://www.w3.org/1999/xlink" version="1.1"><rect x="0" y="0" width="900" height="600" fill="#001220"></rect><path d="M0 417L21.5 411.7C43 406.3 86 395.7 128.8 397.3C171.7 399 214.3 413 257.2 407.7C300 402.3 343 377.7 385.8 380.3C428.7 383 471.3 413 514.2 416C557 419 600 395 642.8 392.8C685.7 390.7 728.3 410.3 771.2 414.8C814 419.3 857 408.7 878.5 403.3L900 398L900 601L878.5 601C857 601 814 601 771.2 601C728.3 601 685.7 601 642.8 601C600 601 557 601 514.2 601C471.3 601 428.7 601 385.8 601C343 601 300 601 257.2 601C214.3 601 171.7 601 128.8 601C86 601 43 601 21.5 601L0 601Z" fill="#fa7268"></path><path d="M0 420L21.5 419.3C43 418.7 86 417.3 128.8 422.8C171.7 428.3 214.3 440.7 257.2 444.7C300 448.7 343 444.3 385.8 439.3C428.7 434.3 471.3 428.7 514.2 430C557 431.3 600 439.7 642.8 442.8C685.7 446 728.3 444 771.2 448.7C814 453.3 857 464.7 878.5 470.3L900 476L900 601L878.5 601C857 601 814 601 771.2 601C728.3 601 685.7 601 642.8 601C600 601 557 601 514.2 601C471.3 601 428.7 601 385.8 601C343 601 300 601 257.2 601C214.3 601 171.7 601 128.8 601C86 601 43 601 21.5 601L0 601Z" fill="#ef5f67"></path><path d="M0 438L21.5 448.3C43 458.7 86 479.3 128.8 480.7C171.7 482 214.3 464 257.2 465.5C300 467 343 488 385.8 495.7C428.7 503.3 471.3 497.7 514.2 493.2C557 488.7 600 485.3 642.8 477.8C685.7 470.3 728.3 458.7 771.2 453.3C814 448 857 449 878.5 449.5L900 450L900 601L878.5 601C857 601 814 601 771.2 601C728.3 601 685.7 601 642.8 601C600 601 557 601 514.2 601C471.3 601 428.7 601 385.8 601C343 601 300 601 257.2 601C214.3 601 171.7 601 128.8 601C86 601 43 601 21.5 601L0 601Z" fill="#e34c67"></path><path d="M0 524L21.5 520.5C43 517 86 510 128.8 506.7C171.7 503.3 214.3 503.7 257.2 501.7C300 499.7 343 495.3 385.8 499C428.7 502.7 471.3 514.3 514.2 512.7C557 511 600 496 642.8 493.8C685.7 491.7 728.3 502.3 771.2 512.5C814 522.7 857 532.3 878.5 537.2L900 542L900 601L878.5 601C857 601 814 601 771.2 601C728.3 601 685.7 601 642.8 601C600 601 557 601 514.2 601C471.3 601 428.7 601 385.8 601C343 601 300 601 257.2 601C214.3 601 171.7 601 128.8 601C86 601 43 601 21.5 601L0 601Z" fill="#d53867"></path><path d="M0 565L21.5 564.7C43 564.3 86 563.7 128.8 562C171.7 560.3 214.3 557.7 257.2 552.8C300 548 343 541 385.8 537.2C428.7 533.3 471.3 532.7 514.2 535.8C557 539 600 546 642.8 546C685.7 546 728.3 539 771.2 540C814 541 857 550 878.5 554.5L900 559L900 601L878.5 601C857 601 814 601 771.2 601C728.3 601 685.7 601 642.8 601C600 601 557 601 514.2 601C471.3 601 428.7 601 385.8 601C343 601 300 601 257.2 601C214.3 601 171.7 601 128.8 601C86 601 43 601 21.5 601L0 601Z" fill="#c62368"></path></svg>